# xmcd CD database file
#
# Track frame offsets:
#	187
#	19050
#	39022
#	56157
#	59600
#	80080
#	101922
#	126430
#	147990
#	165522
#	186070
#
# Disc length: 2748 seconds
#
# Revision: 1
# Processed by: cddbd v1.5.2PL0 Copyright (c) Steve Scherf et al.
# Submitted via: CDex 1.70beta2
#
DISCID=9a0aba0b
DTITLE=Ry Cooder - BuenaVista Social Club
DYEAR=1900
DGENRE=
TTITLE0=Chan Chan
TTITLE1=De Camio a La Vereda
TTITLE2=El Cuarto de Tula
TTITLE3=Pueblo Nuebo
TTITLE4=Dos Gardenias
TTITLE5=?Y Tu Que Has Hecho?
TTITLE6=Veinte Anos
TTITLE7=El Carretero
TTITLE8=Candela
TTITLE9=Amor de Loca Juventud
TTITLE10=Orgullecida
EXTD=
EXTT0=
EXTT1=
EXTT2=
EXTT3=
EXTT4=
EXTT5=
EXTT6=
EXTT7=
EXTT8=
EXTT9=
EXTT10=
PLAYORDER=
